<svg width="30" height="30" viewBox="0 0 30 30" fill="none" xmlns="http://www.w3.org/2000/svg">
<path d="M19.9999 9C20.2651 9 20.5194 9.10536 20.707 9.29289C20.8945 9.48043 20.9999 9.73478 20.9999 10C20.9999 10.2652 20.8945 10.5196 20.707 10.7071C20.5194 10.8946 20.2651 11 19.9999 11C19.7346 11 19.4803 10.8946 19.2927 10.7071C19.1052 10.5196 18.9999 10.2652 18.9999 10C18.9999 9.73478 19.1052 9.48043 19.2927 9.29289C19.4803 9.10536 19.7346 9 19.9999 9Z" fill="#A7A9AB" style="fill:#A7A9AB;fill:color(display-p3 0.6549 0.6627 0.6706);fill-opacity:1;"/>
<path fill-rule="evenodd" clip-rule="evenodd" d="M15.0003 10C16.3262 10 17.5981 10.5268 18.5357 11.4645C19.4734 12.4021 20.0002 13.6739 20.0002 15C20.0002 16.3261 19.4734 17.5978 18.5357 18.5355C17.5981 19.4733 16.3262 20 15.0003 20C13.6742 20 12.4024 19.4733 11.4647 18.5355C10.527 17.5978 10.0002 16.3261 10.0002 15C10.0002 13.6739 10.527 12.4021 11.4647 11.4645C12.4024 10.5268 13.6742 10 15.0003 10ZM15.0003 11.6522C14.1123 11.6522 13.2608 12.0049 12.633 12.6327C12.0051 13.2605 11.6524 14.1121 11.6524 15C11.6524 15.8879 12.0051 16.7395 12.633 17.3673C13.2608 17.9951 14.1123 18.3478 15.0003 18.3478C15.8881 18.3478 16.7396 17.9951 17.3674 17.3673C17.9954 16.7395 18.3481 15.8879 18.3481 15C18.3481 14.1121 17.9954 13.2605 17.3674 12.6327C16.7396 12.0049 15.8881 11.6522 15.0003 11.6522Z" fill="#A7A9AB" style="fill:#A7A9AB;fill:color(display-p3 0.6549 0.6627 0.6706);fill-opacity:1;"/>
<path fill-rule="evenodd" clip-rule="evenodd" d="M10.7105 5H19.2893C22.4399 5 24.9999 7.56007 24.9999 10.7106V19.2894C24.9999 20.8039 24.3983 22.2565 23.3273 23.3274C22.2564 24.3984 20.8038 25 19.2893 25H10.7105C7.55995 25 4.99988 22.44 4.99988 19.2894V10.7106C4.99988 9.19609 5.60154 7.74357 6.67249 6.67261C7.74345 5.60165 9.19597 5 10.7105 5ZM10.5063 6.61702C9.47475 6.61702 8.48547 7.02679 7.75608 7.75619C7.02668 8.48559 6.6169 9.47486 6.6169 10.5064V19.4936C6.6169 21.6435 8.35643 23.383 10.5063 23.383H19.4936C20.5251 23.383 21.5143 22.9732 22.2437 22.2438C22.9732 21.5145 23.383 20.5251 23.383 19.4936V10.5064C23.383 8.35653 21.6434 6.61702 19.4936 6.61702H10.5063Z" fill="#A7A9AB" style="fill:#A7A9AB;fill:color(display-p3 0.6549 0.6627 0.6706);fill-opacity:1;"/>
</svg>
