<svg width="30" height="30" viewBox="0 0 30 30" fill="none" xmlns="http://www.w3.org/2000/svg">
<g clip-path="url(#clip0_319_6573)">
<path d="M24.2373 5H23.0161V25H24.2373V5Z" fill="#A7A9AB" style="fill:#A7A9AB;fill:color(display-p3 0.6549 0.6627 0.6706);fill-opacity:1;"/>
<path d="M12.7121 10.6344C11.297 10.6344 9.99725 11.1428 8.95428 11.9866V6.42578H5.76245V23.5746H8.95428V22.5369C9.99725 23.3807 11.297 23.8891 12.7121 23.8891C16.1503 23.8891 18.9386 20.9226 18.9386 17.2591C18.9386 13.5956 16.1503 10.6291 12.7121 10.6291V10.6344ZM12.3138 21.0222C10.3327 21.0222 8.72891 19.3398 8.72891 17.2644C8.72891 15.1889 10.3327 13.5065 12.3138 13.5065C14.2949 13.5065 15.8987 15.1889 15.8987 17.2644C15.8987 19.3398 14.2949 21.0222 12.3138 21.0222Z" fill="#A7A9AB" style="fill:#A7A9AB;fill:color(display-p3 0.6549 0.6627 0.6706);fill-opacity:1;"/>
</g>
<defs>
<clipPath id="clip0_319_6573">
<rect width="18.4748" height="20" fill="white" style="fill:white;fill-opacity:1;" transform="translate(5.76257 5)"/>
</clipPath>
</defs>
</svg>
