<svg width="16" height="16" viewBox="0 0 16 16" fill="none" xmlns="http://www.w3.org/2000/svg">
<g clip-path="url(#clip0_319_6499)">
<path d="M8.00063 16.0002C6.28559 16.0002 4.89018 14.5115 4.89018 12.6821C4.89018 11.9197 5.40879 10.9098 6.05675 9.94472C5.0929 10.5914 4.08178 11.1113 3.3194 11.1113C1.48994 11.1113 0.00125122 9.71588 0.00125122 8.00084C0.00125122 6.2858 1.48994 4.89039 3.3194 4.89039C4.08178 4.89039 5.09165 5.40901 6.05675 6.05696C5.41004 5.09311 4.89018 4.08199 4.89018 3.31962C4.89018 1.49016 6.28559 0.00146484 8.00063 0.00146484C9.71567 0.00146484 11.1111 1.49016 11.1111 3.31962C11.1111 4.08199 10.5925 5.09187 9.94451 6.05696C10.9084 5.41025 11.9195 4.89039 12.6819 4.89039C14.5113 4.89039 16 6.2858 16 8.00084C16 9.71588 14.5113 11.1113 12.6819 11.1113C11.9195 11.1113 10.9096 10.5927 9.94451 9.94472C10.5912 10.9086 11.1111 11.9197 11.1111 12.6821C11.1111 14.5115 9.71567 16.0002 8.00063 16.0002ZM7.36386 8.37022C7.43227 8.37022 7.50067 8.39634 7.5529 8.44857C7.64991 8.54558 7.65737 8.69979 7.57156 8.80675C6.20724 10.4882 5.42496 11.901 5.42496 12.6833C5.42496 14.218 6.58034 15.4667 8.00063 15.4667C9.42092 15.4667 10.5763 14.218 10.5763 12.6833C10.5763 11.901 9.79402 10.4882 8.4297 8.80675C8.34389 8.69979 8.35135 8.54558 8.44836 8.44857C8.54536 8.35156 8.69958 8.3441 8.80654 8.42991C10.488 9.79424 11.9008 10.5765 12.6831 10.5765C14.2178 10.5765 15.4665 9.42113 15.4665 8.00084C15.4665 6.58056 14.2178 5.42517 12.6831 5.42517C11.9008 5.42517 10.488 6.20745 8.80654 7.57177C8.69958 7.65759 8.54536 7.65012 8.44836 7.55312C8.35135 7.45611 8.34389 7.30189 8.4297 7.19494C9.79402 5.51347 10.5763 4.10065 10.5763 3.31837C10.5763 1.78366 9.42092 0.535006 8.00063 0.535006C6.58034 0.535006 5.42496 1.78366 5.42496 3.31837C5.42496 4.10065 6.20724 5.51347 7.57156 7.19494C7.65737 7.30189 7.64991 7.45611 7.5529 7.55312C7.4559 7.65012 7.30168 7.65759 7.19472 7.57177C5.51326 6.20745 4.10044 5.42517 3.31816 5.42517C1.78345 5.42517 0.534792 6.58056 0.534792 8.00084C0.534792 9.42113 1.78345 10.5765 3.31816 10.5765C4.10044 10.5765 5.51326 9.79424 7.19472 8.42991C7.24447 8.39012 7.30417 8.37022 7.36262 8.37022H7.36386Z" fill="#FF5C34" style="fill:#FF5C34;fill:color(display-p3 1.0000 0.3608 0.2039);fill-opacity:1;"/>
<path d="M7.36386 8.37022C7.43227 8.37022 7.50067 8.39634 7.5529 8.44857C7.64991 8.54558 7.65737 8.69979 7.57156 8.80675C6.20724 10.4882 5.42496 11.901 5.42496 12.6833C5.42496 14.218 6.58034 15.4667 8.00063 15.4667C9.42092 15.4667 10.5763 14.218 10.5763 12.6833C10.5763 11.901 9.79402 10.4882 8.4297 8.80675C8.34389 8.69979 8.35135 8.54558 8.44836 8.44857C8.54536 8.35156 8.69958 8.3441 8.80654 8.42991C10.488 9.79424 11.9008 10.5765 12.6831 10.5765C14.2178 10.5765 15.4665 9.42113 15.4665 8.00084C15.4665 6.58056 14.2178 5.42517 12.6831 5.42517C11.9008 5.42517 10.488 6.20745 8.80654 7.57177C8.69958 7.65759 8.54536 7.65012 8.44836 7.55312C8.35135 7.45611 8.34389 7.30189 8.4297 7.19494C9.79402 5.51347 10.5763 4.10065 10.5763 3.31837C10.5763 1.78366 9.42092 0.535006 8.00063 0.535006C6.58034 0.535006 5.42496 1.78366 5.42496 3.31837C5.42496 4.10065 6.20724 5.51347 7.57156 7.19494C7.65737 7.30189 7.64991 7.45611 7.5529 7.55312C7.4559 7.65012 7.30168 7.65759 7.19472 7.57177C5.51326 6.20745 4.10044 5.42517 3.31816 5.42517C1.78345 5.42517 0.534792 6.58056 0.534792 8.00084C0.534792 9.42113 1.78345 10.5765 3.31816 10.5765C4.10044 10.5765 5.51326 9.79424 7.19472 8.42991C7.24447 8.39012 7.30417 8.37022 7.36262 8.37022H7.36386Z" fill="#FF5C34" style="fill:#FF5C34;fill:color(display-p3 1.0000 0.3608 0.2039);fill-opacity:1;"/>
</g>
<defs>
<clipPath id="clip0_319_6499">
<rect width="16" height="16" fill="white" style="fill:white;fill-opacity:1;"/>
</clipPath>
</defs>
</svg>
