<svg width="26" height="26" viewBox="0 0 26 26" fill="none" xmlns="http://www.w3.org/2000/svg">
<g clip-path="url(#clip0_530_258)">
<path d="M10.9778 15.0222L7.87222 11.9167C7.60741 11.6519 7.27037 11.5194 6.86111 11.5194C6.45185 11.5194 6.11481 11.6519 5.85 11.9167C5.58519 12.1815 5.45278 12.5185 5.45278 12.9278C5.45278 13.337 5.58519 13.6741 5.85 13.9389L9.96667 18.0556C10.2556 18.3444 10.5926 18.4889 10.9778 18.4889C11.363 18.4889 11.7 18.3444 11.9889 18.0556L20.15 9.89444C20.4148 9.62963 20.5472 9.29259 20.5472 8.88333C20.5472 8.47407 20.4148 8.13704 20.15 7.87222C19.8852 7.60741 19.5481 7.475 19.1389 7.475C18.7296 7.475 18.3926 7.60741 18.1278 7.87222L10.9778 15.0222ZM2.88889 26C2.09444 26 1.41459 25.7174 0.849333 25.1521C0.284074 24.5868 0.000962963 23.9065 0 23.1111V2.88889C0 2.09444 0.283111 1.41459 0.849333 0.849333C1.41556 0.284074 2.09541 0.000962963 2.88889 0H23.1111C23.9056 0 24.5859 0.283111 25.1521 0.849333C25.7183 1.41556 26.001 2.09541 26 2.88889V23.1111C26 23.9056 25.7174 24.5859 25.1521 25.1521C24.5868 25.7183 23.9065 26.001 23.1111 26H2.88889Z" fill="#E5E8EB" style="fill:#E5E8EB;fill:color(display-p3 0.8980 0.9098 0.9216);fill-opacity:1;"/>
</g>
<defs>
<clipPath id="clip0_530_258">
<rect width="26" height="26" fill="white" style="fill:white;fill-opacity:1;"/>
</clipPath>
</defs>
</svg>
