<svg width="160" height="35" viewBox="0 0 160 35" fill="none" xmlns="http://www.w3.org/2000/svg">
<g clip-path="url(#clip0_319_6544)">
<path d="M36.4641 11.1841H28.864H28.0689H28.5631L32.5566 17.9265H40.7047L36.4641 11.1841Z" fill="white" style="fill:white;fill-opacity:1;"/>
<path d="M28.4593 11.1841H7.11306L4.94978 17.9265H26.407L28.4593 11.1841Z" fill="white" style="fill:white;fill-opacity:1;"/>
<path d="M0 35.0001H21.1349L22.8218 29.5705H8.29494L9.20467 26.8022H23.6313L25.5582 20.4058H4.48772L0 35.0001Z" fill="white" style="fill:white;fill-opacity:1;"/>
<path d="M131.641 17.9265H131.573H131.716C131.723 17.7553 131.734 18.0835 131.734 17.9265C131.752 15.8895 130.767 13.6099 128.779 12.6146C126.792 11.6229 123.969 11.1841 120.313 11.1841H108.64L106.473 17.9265H131.637H131.641Z" fill="white" style="fill:white;fill-opacity:1;"/>
<path d="M140.355 17.9265H157.432L160.004 11.1841H135.269L132.959 17.9265C132.902 18.162 132.837 17.6697 132.758 17.9265H140.359H140.355Z" fill="white" style="fill:white;fill-opacity:1;"/>
<path d="M135.172 35.0001H142.941L148.188 20.4058H140.42L135.172 35.0001Z" fill="white" style="fill:white;fill-opacity:1;"/>
<path d="M35.2535 22.7745L22.0268 35.0001H29.2544L38.3803 27.1553L42.8322 35.0001H51.2274L43.9389 23.1027L47.6888 20.4058H33.5165L35.2535 22.7745Z" fill="white" style="fill:white;fill-opacity:1;"/>
<path d="M48.9316 17.9261C65.2206 -1.07039 95.1197 1.07007 95.1197 1.07007C60.2566 -5.16579 41.1918 17.9261 41.1918 17.9261H48.9316Z" fill="white" style="fill:white;fill-opacity:1;"/>
<path d="M81.3843 17.9262C81.3951 16.6597 81.1264 15.4575 80.5856 14.6192C80.0412 13.7808 79.2461 13.0959 78.2039 12.5715C77.1437 12.0471 75.8866 11.6725 74.4289 11.4549C72.9712 11.2337 71.2628 11.1802 69.3001 11.1802H58.5123L56.3491 17.9226H81.3521C81.37 17.7157 81.3843 18.1331 81.3843 17.9226V17.9262Z" fill="white" style="fill:white;fill-opacity:1;"/>
<path d="M51.3957 35.0001H59.1642L61.4671 27.3159H64.4148C69.7406 27.3159 73.8952 26.4383 76.8751 24.6867C79.0527 23.406 80.4423 22.2751 81.0369 20.4058H55.8834L51.3921 35.0001H51.3957Z" fill="white" style="fill:white;fill-opacity:1;"/>
<path d="M105.947 11.1841H84.6006L82.4409 17.9265H103.895L105.947 11.1841Z" fill="white" style="fill:white;fill-opacity:1;"/>
<path d="M77.4875 35.0001H98.626L100.309 29.5705H85.7825L86.6922 26.8022H101.122L103.046 20.4058H81.9752L77.4875 35.0001Z" fill="white" style="fill:white;fill-opacity:1;"/>
<path d="M101.524 35.0002H110.743L113.278 27.7405L118.701 35.0002H128.744L121.942 26.3278C124.453 25.6643 128.038 24.6797 129.506 23.374C130.355 22.6177 130.961 21.7508 131.326 20.4023H106.015L101.524 34.9967V35.0002Z" fill="white" style="fill:white;fill-opacity:1;"/>
</g>
<defs>
<clipPath id="clip0_319_6544">
<rect width="160" height="35" fill="white" style="fill:white;fill-opacity:1;"/>
</clipPath>
</defs>
</svg>
