<svg width="80" height="24" viewBox="0 0 80 24" fill="none" xmlns="http://www.w3.org/2000/svg">
<g clip-path="url(#clip0_319_6339)">
<path d="M19.3895 4H18.4126V20H19.3895V4Z" fill="#A7A9AB" style="fill:#A7A9AB;fill:color(display-p3 0.6549 0.6627 0.6706);fill-opacity:1;"/>
<path d="M10.1696 8.5075C9.03754 8.5075 7.9977 8.91421 7.16332 9.58926V5.14062H4.60986V18.8597H7.16332V18.0295C7.9977 18.7046 9.03754 19.1113 10.1696 19.1113C12.9201 19.1113 15.1507 16.7381 15.1507 13.8073C15.1507 10.8765 12.9201 8.50331 10.1696 8.50331V8.5075ZM9.85095 16.8178C8.26605 16.8178 6.98303 15.4719 6.98303 13.8115C6.98303 12.1511 8.26605 10.8052 9.85095 10.8052C11.4359 10.8052 12.7189 12.1511 12.7189 13.8115C12.7189 15.4719 11.4359 16.8178 9.85095 16.8178Z" fill="#A7A9AB" style="fill:#A7A9AB;fill:color(display-p3 0.6549 0.6627 0.6706);fill-opacity:1;"/>
</g>
<g clip-path="url(#clip1_319_6339)">
<path d="M44 7.19971C44.2121 7.19971 44.4156 7.284 44.5656 7.43402C44.7156 7.58405 44.8 7.78753 44.8 7.99971C44.8 8.21188 44.7156 8.41536 44.5656 8.56539C44.4156 8.71542 44.2121 8.79971 44 8.79971C43.7877 8.79971 43.5843 8.71542 43.4342 8.56539C43.2842 8.41536 43.2 8.21188 43.2 7.99971C43.2 7.78753 43.2842 7.58405 43.4342 7.43402C43.5843 7.284 43.7877 7.19971 44 7.19971Z" fill="#A7A9AB" style="fill:#A7A9AB;fill:color(display-p3 0.6549 0.6627 0.6706);fill-opacity:1;"/>
<path fill-rule="evenodd" clip-rule="evenodd" d="M40.0005 7.99951C41.0613 7.99951 42.0788 8.42094 42.8288 9.17109C43.579 9.92123 44.0005 10.9386 44.0005 11.9995C44.0005 13.0604 43.579 14.0778 42.8288 14.8279C42.0788 15.5781 41.0613 15.9995 40.0005 15.9995C38.9396 15.9995 37.9222 15.5781 37.1721 14.8279C36.4219 14.0778 36.0005 13.0604 36.0005 11.9995C36.0005 10.9386 36.4219 9.92123 37.1721 9.17109C37.9222 8.42094 38.9396 7.99951 40.0005 7.99951ZM40.0005 9.32125C39.2902 9.32125 38.609 9.60343 38.1067 10.1057C37.6044 10.6079 37.3222 11.2892 37.3222 11.9995C37.3222 12.7099 37.6044 13.3911 38.1067 13.8933C38.609 14.3956 39.2902 14.6778 40.0005 14.6778C40.7108 14.6778 41.392 14.3956 41.8942 13.8933C42.3966 13.3911 42.6788 12.7099 42.6788 11.9995C42.6788 11.2892 42.3966 10.6079 41.8942 10.1057C41.392 9.60343 40.7108 9.32125 40.0005 9.32125Z" fill="#A7A9AB" style="fill:#A7A9AB;fill:color(display-p3 0.6549 0.6627 0.6706);fill-opacity:1;"/>
<path fill-rule="evenodd" clip-rule="evenodd" d="M36.5685 3.99951H43.4316C45.952 3.99951 48 6.04756 48 8.56803V15.431C48 16.6427 47.5187 17.8047 46.662 18.6615C45.8052 19.5182 44.6431 19.9995 43.4316 19.9995H36.5685C34.0481 19.9995 32 17.9515 32 15.431V8.56803C32 7.35638 32.4813 6.19436 33.3381 5.3376C34.1949 4.48083 35.3569 3.99951 36.5685 3.99951ZM36.4051 5.29313C35.5799 5.29313 34.7885 5.62094 34.205 6.20447C33.6214 6.78798 33.2936 7.5794 33.2936 8.40462V15.5944C33.2936 17.3143 34.6852 18.7059 36.4051 18.7059H43.595C44.4202 18.7059 45.2116 18.3781 45.7951 17.7946C46.3786 17.2111 46.7065 16.4196 46.7065 15.5944V8.40462C46.7065 6.68474 45.3148 5.29313 43.595 5.29313H36.4051Z" fill="#A7A9AB" style="fill:#A7A9AB;fill:color(display-p3 0.6549 0.6627 0.6706);fill-opacity:1;"/>
</g>
<path d="M75.9963 10.3471C76.0322 9.31078 75.8047 8.28218 75.3349 7.35685C75.0161 6.97716 74.5737 6.72094 74.0848 6.63282C72.0624 6.45001 70.0317 6.37509 68.0014 6.40836C65.9784 6.37358 63.955 6.44608 61.9397 6.62558C61.5413 6.69778 61.1726 6.88394 60.8786 7.16136C60.2244 7.76231 60.1518 8.79044 60.0791 9.65929C59.9736 11.2215 59.9736 12.7889 60.0791 14.3511C60.1001 14.8401 60.1732 15.3255 60.2971 15.7991C60.3848 16.1649 60.5621 16.5031 60.8132 16.7838C61.1092 17.0759 61.4865 17.2727 61.8961 17.3485C63.4631 17.5413 65.0419 17.6211 66.6204 17.5875C69.1643 17.6237 71.3955 17.5875 74.0339 17.3848C74.4536 17.3136 74.8415 17.1166 75.1459 16.82C75.3494 16.6173 75.5014 16.3691 75.5893 16.096C75.8492 15.3015 75.9769 14.4699 75.9672 13.6343C75.9963 13.2288 75.9963 10.7816 75.9963 10.3471ZM66.3587 14.0686V9.58689L70.6615 11.8387C69.455 12.5048 67.8632 13.2577 66.3587 14.0686Z" fill="#A7A9AB" style="fill:#A7A9AB;fill:color(display-p3 0.6549 0.6627 0.6706);fill-opacity:1;"/>
<defs>
<clipPath id="clip0_319_6339">
<rect width="14.7799" height="16" fill="white" style="fill:white;fill-opacity:1;" transform="translate(4.61011 4)"/>
</clipPath>
<clipPath id="clip1_319_6339">
<rect width="16.0004" height="16.0004" fill="white" style="fill:white;fill-opacity:1;" transform="translate(32 3.99951)"/>
</clipPath>
</defs>
</svg>
