<svg width="145" height="24" viewBox="0 0 145 24" fill="none" xmlns="http://www.w3.org/2000/svg">
<g clip-path="url(#clip0_480_10417)">
<path d="M36.3803 5.17127C38.1759 5.17127 39.8704 6.05609 40.8824 7.37175L42.9817 5.14669C41.3118 3.42765 38.9856 2.33898 36.4063 2.33898C30.9181 2.3144 27.0752 6.3091 27.0752 11.9997C27.0752 17.6903 30.9195 21.6604 36.4063 21.6604C39.214 21.6865 41.3118 20.5472 42.9817 18.8281L40.7306 16.7043C39.8458 17.8175 38.3783 18.8036 36.3817 18.8036C32.7152 18.8036 30.3369 16.1231 30.3369 12.0011C30.3369 7.87922 32.7137 5.17271 36.3817 5.17271L36.3803 5.17127Z" fill="#DBECFA" style="fill:#DBECFA;fill:color(display-p3 0.8582 0.9263 0.9808);fill-opacity:1;"/>
<path d="M53.7069 10.8108C52.796 9.64699 51.4558 9.19157 50.344 9.19157C46.9305 9.19157 44.6288 11.7463 44.6288 15.3622C44.6288 18.9781 46.9305 21.5574 50.344 21.5574C51.4572 21.5574 52.7975 21.128 53.7069 19.9395V21.4822H56.9685V9.16699H53.7069V10.8108ZM50.7228 18.8523C48.9777 18.8523 47.8905 17.5121 47.8905 15.3622C47.8905 13.2123 48.9777 11.8721 50.7228 11.8721C52.3666 11.8721 53.7069 13.3395 53.7329 15.3622C53.7069 17.3848 52.3666 18.8523 50.7228 18.8523Z" fill="#DBECFA" style="fill:#DBECFA;fill:color(display-p3 0.8582 0.9263 0.9808);fill-opacity:1;"/>
<path d="M62.6763 10.9376V9.16793H59.4392V21.4831H62.6763V15.4903C62.6763 13.8971 63.966 11.9756 66.1404 12.1014V9.16793C64.9766 9.09275 63.5105 9.74914 62.6763 10.9376Z" fill="#DBECFA" style="fill:#DBECFA;fill:color(display-p3 0.8582 0.9263 0.9808);fill-opacity:1;"/>
<path d="M87.0482 9.16699C83.5335 9.16699 81.08 11.7217 81.08 15.3622C81.08 19.0027 83.5335 21.5082 87.0482 21.5082C90.0323 21.5082 91.7773 19.9901 92.3585 18.5747L89.7041 17.5121C89.4756 17.9414 88.718 18.8017 87.0482 18.8017C85.7585 18.8017 84.4935 17.8908 84.1898 16.526H92.7373C92.7373 16.1978 92.9643 14.0986 92.2067 12.4793C92.1561 12.3275 90.9171 9.16699 87.0482 9.16699ZM84.1898 14.3255C84.4935 12.8335 85.6067 11.8721 87.0482 11.8721C88.6168 11.8721 89.451 12.9087 89.7286 14.3255H84.1898Z" fill="#DBECFA" style="fill:#DBECFA;fill:color(display-p3 0.8582 0.9263 0.9808);fill-opacity:1;"/>
<path d="M73.4156 9.16699C69.9009 9.16699 67.4474 11.7217 67.4474 15.3622C67.4474 19.0027 69.9009 21.5082 73.4156 21.5082C76.3997 21.5082 78.1447 19.9901 78.7259 18.5747L76.0715 17.5121C75.843 17.9414 75.0855 18.8017 73.4156 18.8017C72.1259 18.8017 70.8609 17.8908 70.5573 16.526H79.1047C79.1047 16.1978 79.3317 14.0986 78.5741 12.4793C78.5235 12.3275 77.2845 9.16699 73.4156 9.16699ZM70.5573 14.3255C70.8609 12.8335 71.9741 11.8721 73.4156 11.8721C74.9843 11.8721 75.8185 12.9087 76.0961 14.3255H70.5573Z" fill="#DBECFA" style="fill:#DBECFA;fill:color(display-p3 0.8582 0.9263 0.9808);fill-opacity:1;"/>
<path d="M98.2049 10.9376V9.16793H94.9678V21.4831H98.2049V15.4903C98.2049 13.8971 99.4945 11.9756 101.669 12.1014V9.16793C100.505 9.09275 99.0391 9.74914 98.2049 10.9376Z" fill="#DBECFA" style="fill:#DBECFA;fill:color(display-p3 0.8582 0.9263 0.9808);fill-opacity:1;"/>
<path d="M110.951 9.14236C110.319 9.14236 108.675 9.34477 107.537 10.8614V3.2002H104.276V21.5096H107.537V19.8412C108.675 21.2826 110.319 21.5602 110.926 21.5602C114.366 21.5602 116.692 18.9809 116.692 15.365C116.692 11.7491 114.366 9.14381 110.951 9.14381V9.14236ZM110.572 18.9043C108.878 18.9043 107.537 17.4122 107.537 15.4142C107.537 13.4161 108.878 11.9241 110.572 11.9241C112.266 11.9241 113.43 13.2397 113.43 15.4142C113.43 17.5886 112.317 18.9043 110.572 18.9043Z" fill="#DBECFA" style="fill:#DBECFA;fill:color(display-p3 0.8582 0.9263 0.9808);fill-opacity:1;"/>
<path d="M126.967 16.0005C127.018 17.8207 125.981 18.8588 124.438 18.8588C122.896 18.8588 121.884 17.9234 121.884 16.1017V9.22266H118.622V16.1523C118.622 19.4906 120.721 21.5899 123.73 21.5899C124.918 21.5899 126.208 21.1099 126.967 20.0733V21.5393H130.229V9.22266H126.967V16.0005Z" fill="#DBECFA" style="fill:#DBECFA;fill:color(display-p3 0.8582 0.9263 0.9808);fill-opacity:1;"/>
<path d="M141.317 3.2002V10.8628C140.203 9.39682 138.56 9.14381 137.903 9.14381C134.49 9.14381 132.162 11.7231 132.162 15.3404C132.162 18.9578 134.488 21.5356 137.903 21.5356C138.561 21.5356 140.205 21.2074 141.317 19.8412V21.485H144.578V3.2002H141.317ZM138.256 18.9043C136.511 18.9043 135.424 17.5641 135.424 15.4142C135.424 13.2643 136.511 11.8995 138.256 11.8995C140.001 11.8995 141.315 13.4161 141.315 15.4142C141.315 17.4122 139.949 18.9043 138.256 18.9043Z" fill="#DBECFA" style="fill:#DBECFA;fill:color(display-p3 0.8582 0.9263 0.9808);fill-opacity:1;"/>
<path d="M16.7031 12.8414L12.6 15.7142C11.6371 16.388 10.5325 16.7118 9.43663 16.7118C7.69301 16.7118 5.97542 15.8906 4.90121 14.3566C4.39229 13.6308 4.08434 12.8226 3.96434 12C3.6694 9.9947 4.48916 7.89831 6.2588 6.65928L8.85253 4.84337C9.33687 4.50361 10.0135 4.54843 10.4096 4.98795C10.8839 5.51566 10.7783 6.31807 10.2159 6.71277L7.58602 8.55325C6.45542 9.3441 5.99422 10.7364 6.32386 12C6.41783 12.3586 6.57108 12.7084 6.79663 13.0294C7.81301 14.481 9.82121 14.8352 11.2728 13.8188L15.5133 10.8492C17.1398 9.7041 18.2039 7.81301 18.2039 5.67325C18.2053 2.54024 15.6651 0 12.5306 0H1.73494C0.776386 0 0 0.776385 0 1.73494V22.2651C0 23.2236 0.776386 24 1.73494 24H11.6053C15.5769 24 18.7952 20.7802 18.7952 16.8101C18.7952 15.1619 17.9667 13.7089 16.7031 12.8414Z" fill="#DBECFA" style="fill:#DBECFA;fill:color(display-p3 0.8582 0.9263 0.9808);fill-opacity:1;"/>
</g>
<defs>
<clipPath id="clip0_480_10417">
<rect width="144.578" height="24" fill="white" style="fill:white;fill-opacity:1;"/>
</clipPath>
</defs>
</svg>
