<svg width="129" height="28" viewBox="0 0 129 28" fill="none" xmlns="http://www.w3.org/2000/svg">
<g clip-path="url(#clip0_480_10390)">
<path d="M29.3103 8.94727H23.2013H22.5621H22.9594L26.1694 14.3412H32.719L29.3103 8.94727Z" fill="#DBECFA" style="fill:#DBECFA;fill:color(display-p3 0.8582 0.9263 0.9808);fill-opacity:1;"/>
<path d="M22.8763 8.94727H5.71787L3.979 14.3412H21.2266L22.8763 8.94727Z" fill="#DBECFA" style="fill:#DBECFA;fill:color(display-p3 0.8582 0.9263 0.9808);fill-opacity:1;"/>
<path d="M0.00012207 28.0007H16.9887L18.3446 23.657H6.66771L7.39896 21.4423H18.9953L20.5441 16.3252H3.60741L0.00012207 28.0007Z" fill="#DBECFA" style="fill:#DBECFA;fill:color(display-p3 0.8582 0.9263 0.9808);fill-opacity:1;"/>
<path d="M105.815 14.3412H105.76H105.876C105.881 14.2042 105.89 14.4668 105.89 14.3412C105.904 12.7116 105.113 10.8879 103.515 10.0917C101.917 9.2983 99.6484 8.94727 96.7091 8.94727H87.3266L85.5849 14.3412H105.812H105.815Z" fill="#DBECFA" style="fill:#DBECFA;fill:color(display-p3 0.8582 0.9263 0.9808);fill-opacity:1;"/>
<path d="M112.819 14.3412H126.546L128.613 8.94727H108.731L106.874 14.3412C106.828 14.5296 106.776 14.1357 106.713 14.3412H112.822H112.819Z" fill="#DBECFA" style="fill:#DBECFA;fill:color(display-p3 0.8582 0.9263 0.9808);fill-opacity:1;"/>
<path d="M108.654 28.0007H114.898L119.116 16.3252H112.871L108.654 28.0007Z" fill="#DBECFA" style="fill:#DBECFA;fill:color(display-p3 0.8582 0.9263 0.9808);fill-opacity:1;"/>
<path d="M28.3372 18.2202L17.7053 28.0007H23.515L30.8505 21.7249L34.429 28.0007H41.1772L35.3186 18.4828L38.3328 16.3252H26.9409L28.3372 18.2202Z" fill="#DBECFA" style="fill:#DBECFA;fill:color(display-p3 0.8582 0.9263 0.9808);fill-opacity:1;"/>
<path d="M39.3319 14.3417C52.4252 -0.855528 76.4585 0.856837 76.4585 0.856837C48.435 -4.13185 33.1105 14.3417 33.1105 14.3417H39.3319Z" fill="#DBECFA" style="fill:#DBECFA;fill:color(display-p3 0.8582 0.9263 0.9808);fill-opacity:1;"/>
<path d="M65.4178 14.3421C65.4264 13.329 65.2105 12.3672 64.7758 11.6965C64.3382 11.0258 63.6991 10.4779 62.8613 10.0583C62.0092 9.63882 60.9987 9.33916 59.8269 9.16507C58.6552 8.98812 57.282 8.94531 55.7043 8.94531H47.033L45.2941 14.3393H65.3919C65.4063 14.1737 65.4178 14.5076 65.4178 14.3393V14.3421Z" fill="#DBECFA" style="fill:#DBECFA;fill:color(display-p3 0.8582 0.9263 0.9808);fill-opacity:1;"/>
<path d="M41.3127 28.0007H47.5571L49.4082 21.8533H51.7776C56.0585 21.8533 59.3981 21.1512 61.7934 19.7499C63.5437 18.7254 64.6608 17.8207 65.1387 16.3252H44.92L41.3098 28.0007H41.3127Z" fill="#DBECFA" style="fill:#DBECFA;fill:color(display-p3 0.8582 0.9263 0.9808);fill-opacity:1;"/>
<path d="M85.1617 8.94727H68.0033L66.2673 14.3412H83.5121L85.1617 8.94727Z" fill="#DBECFA" style="fill:#DBECFA;fill:color(display-p3 0.8582 0.9263 0.9808);fill-opacity:1;"/>
<path d="M62.2855 28.0007H79.2769L80.63 23.657H68.9531L69.6844 21.4423H81.2835L82.8295 16.3252H65.8928L62.2855 28.0007Z" fill="#DBECFA" style="fill:#DBECFA;fill:color(display-p3 0.8582 0.9263 0.9808);fill-opacity:1;"/>
<path d="M81.606 28.0006H89.0164L91.0546 22.1928L95.4133 28.0006H103.486L98.0188 21.0627C100.037 20.5318 102.919 19.7441 104.099 18.6996C104.781 18.0946 105.268 17.4011 105.562 16.3223H85.2162L81.606 27.9977V28.0006Z" fill="#DBECFA" style="fill:#DBECFA;fill:color(display-p3 0.8582 0.9263 0.9808);fill-opacity:1;"/>
</g>
<defs>
<clipPath id="clip0_480_10390">
<rect width="128.61" height="28" fill="white" style="fill:white;fill-opacity:1;"/>
</clipPath>
</defs>
</svg>
