<svg width="30" height="30" viewBox="0 0 30 30" fill="none" xmlns="http://www.w3.org/2000/svg">
<path d="M24.9954 12.934C25.0403 11.6386 24.7559 10.3529 24.1686 9.19618C23.7701 8.72158 23.2172 8.40129 22.606 8.29114C20.0781 8.06263 17.5396 7.96898 15.0017 8.01057C12.473 7.96709 9.9437 8.05773 7.42466 8.28209C6.92663 8.37234 6.46574 8.60505 6.09822 8.95182C5.28056 9.70301 5.18971 10.9882 5.09886 12.0742C4.96705 14.027 4.96705 15.9862 5.09886 17.9389C5.12514 18.5502 5.21651 19.157 5.37141 19.749C5.48096 20.2062 5.70258 20.629 6.01646 20.9799C6.38647 21.3451 6.85809 21.591 7.37015 21.6858C9.32883 21.9267 11.3024 22.0265 13.2755 21.9845C16.4553 22.0297 19.2444 21.9845 22.5424 21.7311C23.067 21.6421 23.5519 21.3958 23.9324 21.0252C24.1868 20.7717 24.3768 20.4614 24.4866 20.1201C24.8115 19.127 24.9711 18.0875 24.959 17.043C24.9954 16.5361 24.9954 13.4771 24.9954 12.934ZM12.9484 17.5859V11.9837L18.3269 14.7985C16.8187 15.6311 14.829 16.5723 12.9484 17.5859Z" fill="#A7A9AB" style="fill:#A7A9AB;fill:color(display-p3 0.6549 0.6627 0.6706);fill-opacity:1;"/>
</svg>
