<svg width="20" height="20" viewBox="0 0 20 20" fill="none" xmlns="http://www.w3.org/2000/svg">
<g clip-path="url(#clip0_493_336)">
<path d="M2.34111 2.20892C1.48462 3.06541 1.14844 4.24287 1.3292 5.35445C0.646713 6.28696 0.724422 7.59957 1.5674 8.44255C2.49822 9.37337 4.00679 9.37337 4.93593 8.44255C4.95282 8.42566 4.96802 8.40707 4.98492 8.38849C5.88364 8.36822 6.7773 8.01684 7.46317 7.32928C8.87714 5.91531 8.87714 3.62289 7.46317 2.20892C6.0492 0.794945 3.75677 0.794945 2.3428 2.20892H2.34111Z" fill="#6CCC5E" style="fill:#6CCC5E;fill:color(display-p3 0.4235 0.8000 0.3686);fill-opacity:1;"/>
<path d="M3.25048 9.56079C2.50211 9.56079 1.79766 9.26854 1.26721 8.73978C0.326251 7.79882 0.17759 6.35613 0.887109 5.24962C0.741827 4.02316 1.16585 2.78488 2.04092 1.90981C2.8045 1.14623 3.81979 0.725586 4.89927 0.725586C5.97875 0.725586 6.99404 1.14623 7.75762 1.90981C9.33377 3.48595 9.33377 6.05036 7.75762 7.6282C7.05993 8.32589 6.146 8.73809 5.16619 8.80228C4.64587 9.29219 3.96676 9.56079 3.24711 9.56079H3.25048ZM4.90096 1.57025C4.04616 1.57025 3.24373 1.90305 2.63895 2.50614C1.91422 3.23087 1.57974 4.2698 1.74529 5.28509C1.76387 5.39659 1.73684 5.51146 1.66927 5.60269C1.0949 6.38654 1.17767 7.45588 1.86523 8.14175C2.2352 8.51172 2.72679 8.71613 3.25048 8.71613C3.77418 8.71613 4.26577 8.51172 4.63574 8.14175C4.65432 8.12148 4.66445 8.10966 4.67459 8.09783C4.7523 8.01505 4.85873 7.96775 4.97191 7.96606C5.79969 7.94748 6.57678 7.61637 7.16129 7.03186C8.40801 5.78513 8.40801 3.75625 7.16129 2.50783C6.55651 1.90305 5.75407 1.57025 4.89927 1.57025H4.90096Z" fill="#595757" style="fill:#595757;fill:color(display-p3 0.3490 0.3412 0.3412);fill-opacity:1;"/>
<path d="M12.2119 7.1616L8.16938 0.422852C8.16938 0.422852 6.38375 0.591785 6.41754 2.71359C6.41754 2.71359 3.31761 3.38763 4.59813 7.49777C5.4107 10.1044 10.8301 9.82229 12.2119 7.1616Z" fill="#89D375" style="fill:#89D375;fill:color(display-p3 0.5373 0.8275 0.4588);fill-opacity:1;"/>
<path d="M7.90609 9.73409C6.02248 9.73409 4.60007 8.9249 4.19463 7.62243C3.71148 6.07331 3.75878 4.78773 4.33315 3.80116C4.82475 2.95818 5.57481 2.56626 6.00221 2.40239C6.14243 0.216397 8.10881 0.00354079 8.12908 0.00185146C8.29126 -0.0133525 8.44668 0.0660461 8.53114 0.204571L12.5737 6.94332C12.6497 7.06833 12.6548 7.22544 12.5872 7.35551C11.7341 8.99923 9.62245 9.73409 7.90609 9.73409ZM7.96184 0.897197C7.5564 1.0239 6.81985 1.42934 6.84012 2.70647C6.8435 2.9075 6.70497 3.08319 6.50732 3.12543C6.50057 3.12543 5.56805 3.34842 5.05788 4.23701C4.61358 5.00903 4.595 6.06318 5.00213 7.37072C5.35013 8.48906 6.73031 8.88774 7.90778 8.88774C9.79476 8.88774 11.1445 8.04983 11.7223 7.16293L7.96184 0.897197Z" fill="#595757" style="fill:#595757;fill:color(display-p3 0.3490 0.3412 0.3412);fill-opacity:1;"/>
<path d="M3.82334 7.06014C3.82334 7.06014 2.24044 5.88099 3.31823 5.27452C4.39602 4.66804 7.73076 6.31852 7.73076 6.31852C7.73076 6.31852 5.71032 8.47411 3.82334 7.06014Z" fill="#FFD757" style="fill:#FFD757;fill:color(display-p3 1.0000 0.8431 0.3412);fill-opacity:1;"/>
<path d="M5.21364 7.96396C4.62406 7.96396 4.06996 7.77306 3.56992 7.39803C3.38747 7.26119 2.47185 6.53816 2.52253 5.756C2.53774 5.51105 2.65261 5.16473 3.11211 4.90627C3.33679 4.77957 3.61553 4.71875 3.96353 4.71875C5.43494 4.71875 7.81859 5.89115 7.91995 5.94014C8.03989 5.99926 8.12436 6.11245 8.14801 6.24422C8.17166 6.37598 8.13112 6.51113 8.03989 6.60911C7.98752 6.66486 6.75093 7.96565 5.21364 7.96565V7.96396ZM3.96184 5.56342C3.71689 5.56342 3.59019 5.60734 3.52431 5.64281C3.42126 5.70025 3.3672 5.756 3.36382 5.81006C3.35031 6.02291 3.72703 6.46214 4.07503 6.7223C4.43148 6.98921 4.80313 7.11929 5.21364 7.11929C5.90964 7.11929 6.55159 6.74088 6.9621 6.43173C6.19514 6.09556 4.83861 5.56342 3.96184 5.56342Z" fill="#595757" style="fill:#595757;fill:color(display-p3 0.3490 0.3412 0.3412);fill-opacity:1;"/>
<path d="M4.29432 7.06025C4.27743 7.07715 4.26391 7.09573 4.24702 7.11262C1.49172 6.73421 1.09473 9.3172 1.09473 9.3172L4.76733 11.5066L4.93627 11.4052C4.93627 11.4052 5.26569 11.015 5.58328 10.4693C6.13738 10.5048 6.70162 10.3122 7.12564 9.88988C7.9078 9.10772 7.9078 7.84241 7.12564 7.06025C6.34348 6.27809 5.07817 6.27809 4.29601 7.06025H4.29432Z" fill="#A6DF8E" style="fill:#A6DF8E;fill:color(display-p3 0.6510 0.8745 0.5569);fill-opacity:1;"/>
<path d="M4.76788 11.9287C4.69355 11.9287 4.61753 11.9084 4.55164 11.8696L0.879036 9.68018C0.732064 9.59233 0.650976 9.4234 0.678005 9.25278C0.81653 8.35236 1.6291 6.65121 3.71711 6.65121C3.83874 6.65121 3.96545 6.65627 4.09383 6.6681C4.53982 6.26773 5.10912 6.0498 5.71052 6.0498C6.35754 6.0498 6.9657 6.30151 7.42351 6.75932C8.36784 7.70366 8.36784 9.24095 7.42351 10.187C6.99273 10.6178 6.4268 10.8661 5.82033 10.8931C5.53314 11.3509 5.2713 11.6635 5.25778 11.677C5.22738 11.7124 5.1919 11.7429 5.15305 11.7665L4.98411 11.8679C4.91654 11.9084 4.84221 11.9287 4.76619 11.9287H4.76788ZM1.57673 9.11256L4.72564 10.9894C4.84221 10.8374 5.0331 10.5738 5.21724 10.2562C5.29833 10.1177 5.44868 10.0383 5.60916 10.0468C6.06528 10.0755 6.50451 9.90993 6.82548 9.58895C7.4404 8.97404 7.4404 7.97226 6.82548 7.35566C6.52816 7.05665 6.13117 6.89278 5.70884 6.89278C5.2865 6.89278 4.8912 7.05665 4.59219 7.35566C4.57529 7.37593 4.56347 7.38776 4.55164 7.40127C4.45873 7.49925 4.32358 7.54655 4.18844 7.52797C4.02457 7.50601 3.86577 7.49418 3.71373 7.49418C2.24064 7.49418 1.73215 8.58887 1.57504 9.11087L1.57673 9.11256Z" fill="#595757" style="fill:#595757;fill:color(display-p3 0.3490 0.3412 0.3412);fill-opacity:1;"/>
<path d="M9.11195 6.3519C8.4227 5.66265 7.30775 5.66265 6.6185 6.3519C5.92925 7.04114 5.92925 8.1561 6.6185 8.84535C7.30775 9.5346 8.4227 9.5346 9.11195 8.84535C9.8012 8.1561 9.8012 7.04114 9.11195 6.3519Z" fill="#FF7055" style="fill:#FF7055;fill:color(display-p3 1.0000 0.4392 0.3333);fill-opacity:1;"/>
<path d="M7.86471 9.78508C7.2802 9.78508 6.73285 9.55702 6.31897 9.14482C5.90677 8.73262 5.67871 8.18359 5.67871 7.59908C5.67871 7.01457 5.90677 6.46723 6.31897 6.05334C6.73116 5.64115 7.2802 5.41309 7.86471 5.41309C8.44922 5.41309 8.99656 5.64115 9.41045 6.05334C9.82264 6.46554 10.0507 7.01457 10.0507 7.59908C10.0507 8.18359 9.82264 8.73093 9.41045 9.14482C8.99825 9.55702 8.44922 9.78508 7.86471 9.78508ZM7.86471 6.25775C7.50657 6.25775 7.17039 6.39797 6.91699 6.64968C6.39499 7.17168 6.39499 8.0231 6.91699 8.54511C7.17039 8.79851 7.50657 8.93703 7.86471 8.93703C8.22284 8.93703 8.55902 8.79682 8.81242 8.54511C9.06582 8.29171 9.20604 7.95553 9.20604 7.59739C9.20604 7.23925 9.06582 6.90308 8.81411 6.64968C8.56071 6.39628 8.22453 6.25606 7.8664 6.25606L7.86471 6.25775Z" fill="#595757" style="fill:#595757;fill:color(display-p3 0.3490 0.3412 0.3412);fill-opacity:1;"/>
<path d="M4.07626 10.5457L3.60156 11.0204L11.386 18.8031C12.4182 19.8353 14.0906 19.8353 15.1228 18.8031L18.2312 15.6948L13.0821 10.5457C10.5954 8.05899 6.56296 8.05899 4.07626 10.5457Z" fill="#EFCD97" style="fill:#EFCD97;fill:color(display-p3 0.9373 0.8039 0.5922);fill-opacity:1;"/>
<path d="M13.2539 20.0006C12.4346 20.0006 11.6659 19.6813 11.0865 19.1036L3.30203 11.3208C3.22263 11.2414 3.17871 11.135 3.17871 11.0218C3.17871 10.9086 3.22263 10.8022 3.30203 10.7228L3.77673 10.2481C5.05894 8.96591 6.76516 8.25977 8.57782 8.25977C10.3905 8.25977 12.0967 8.96591 13.3789 10.2481L18.528 15.3972C18.6935 15.5627 18.6935 15.8297 18.528 15.9952L15.4196 19.1036C14.8402 19.683 14.0715 20.0006 13.2522 20.0006H13.2539ZM4.19907 11.0201L11.6845 18.5056C12.1035 18.9245 12.6609 19.156 13.2539 19.156C13.8468 19.156 14.4043 18.9245 14.8233 18.5056L17.6326 15.6962L12.7826 10.8461C11.6592 9.72273 10.1658 9.10443 8.57782 9.10443C6.98984 9.10443 5.49647 9.72273 4.37307 10.8461L4.19738 11.0218L4.19907 11.0201Z" fill="#595757" style="fill:#595757;fill:color(display-p3 0.3490 0.3412 0.3412);fill-opacity:1;"/>
<path d="M10.1055 4.51767L10.5802 4.04297L18.3647 11.8257C19.3968 12.8579 19.3968 14.5303 18.3647 15.5625L15.2563 18.6709L10.1072 13.5218C7.62051 11.0351 7.62051 7.00268 10.1072 4.51598L10.1055 4.51767Z" fill="#FFEBC0" style="fill:#FFEBC0;fill:color(display-p3 1.0000 0.9216 0.7529);fill-opacity:1;"/>
<path d="M15.2548 19.0955C15.1467 19.0955 15.0385 19.055 14.9558 18.9722L9.80668 13.8231C7.15949 11.1759 7.15949 6.86812 9.80668 4.22094L10.2814 3.74624C10.4469 3.58068 10.7138 3.58068 10.8794 3.74624L18.6638 11.529C19.8582 12.7233 19.8582 14.6695 18.6638 15.8638L15.5555 18.9722C15.4727 19.055 15.3646 19.0955 15.2565 19.0955H15.2548ZM10.5787 4.64158L10.403 4.81727C8.08525 7.13504 8.08525 10.9073 10.403 13.2251L15.2531 18.0752L18.0624 15.2658C18.9274 14.4009 18.9274 12.992 18.0624 12.1253L10.5787 4.64158Z" fill="#595757" style="fill:#595757;fill:color(display-p3 0.3490 0.3412 0.3412);fill-opacity:1;"/>
<path d="M11.0398 7.22506C11.203 7.22506 11.3354 7.0927 11.3354 6.92942C11.3354 6.76615 11.203 6.63379 11.0398 6.63379C10.8765 6.63379 10.7441 6.76615 10.7441 6.92942C10.7441 7.0927 10.8765 7.22506 11.0398 7.22506Z" fill="#EFCD97" style="fill:#EFCD97;fill:color(display-p3 0.9373 0.8039 0.5922);fill-opacity:1;"/>
<path d="M13.7849 15.5034C13.9482 15.5034 14.0805 15.371 14.0805 15.2077C14.0805 15.0445 13.9482 14.9121 13.7849 14.9121C13.6216 14.9121 13.4893 15.0445 13.4893 15.2077C13.4893 15.371 13.6216 15.5034 13.7849 15.5034Z" fill="#EFCD97" style="fill:#EFCD97;fill:color(display-p3 0.9373 0.8039 0.5922);fill-opacity:1;"/>
<path d="M15.2204 16.3061C15.3837 16.3061 15.5161 16.1738 15.5161 16.0105C15.5161 15.8472 15.3837 15.7148 15.2204 15.7148C15.0572 15.7148 14.9248 15.8472 14.9248 16.0105C14.9248 16.1738 15.0572 16.3061 15.2204 16.3061Z" fill="#EFCD97" style="fill:#EFCD97;fill:color(display-p3 0.9373 0.8039 0.5922);fill-opacity:1;"/>
<path d="M10.0683 8.61907C10.3482 8.61907 10.5751 8.39217 10.5751 8.11227C10.5751 7.83237 10.3482 7.60547 10.0683 7.60547C9.78843 7.60547 9.56152 7.83237 9.56152 8.11227C9.56152 8.39217 9.78843 8.61907 10.0683 8.61907Z" fill="#EFCD97" style="fill:#EFCD97;fill:color(display-p3 0.9373 0.8039 0.5922);fill-opacity:1;"/>
<path d="M11.885 8.74555C12.0949 8.74555 12.2651 8.57537 12.2651 8.36545C12.2651 8.15553 12.0949 7.98535 11.885 7.98535C11.6751 7.98535 11.5049 8.15553 11.5049 8.36545C11.5049 8.57537 11.6751 8.74555 11.885 8.74555Z" fill="#EFCD97" style="fill:#EFCD97;fill:color(display-p3 0.9373 0.8039 0.5922);fill-opacity:1;"/>
<path d="M15.094 14.9965C15.3039 14.9965 15.4741 14.8264 15.4741 14.6164C15.4741 14.4065 15.3039 14.2363 15.094 14.2363C14.884 14.2363 14.7139 14.4065 14.7139 14.6164C14.7139 14.8264 14.884 14.9965 15.094 14.9965Z" fill="#EFCD97" style="fill:#EFCD97;fill:color(display-p3 0.9373 0.8039 0.5922);fill-opacity:1;"/>
</g>
<defs>
<clipPath id="clip0_493_336">
<rect width="19.1148" height="20" fill="white" style="fill:white;fill-opacity:1;" transform="translate(0.442383)"/>
</clipPath>
</defs>
</svg>
