<svg width="160" height="35" viewBox="0 0 160 35" fill="none" xmlns="http://www.w3.org/2000/svg">
<path d="M36.4646 11.1822H28.8644H28.0693H28.5636L32.5571 17.9247H40.7052L36.4646 11.1822Z" fill="#231815" style="fill:#231815;fill:color(display-p3 0.1373 0.0941 0.0824);fill-opacity:1;"/>
<path d="M28.4593 11.1822H7.11304L4.94977 17.9247H26.407L28.4593 11.1822Z" fill="#231815" style="fill:#231815;fill:color(display-p3 0.1373 0.0941 0.0824);fill-opacity:1;"/>
<path d="M0 34.9984H21.1349L22.8218 29.5688H8.29494L9.20467 26.8004H23.6313L25.5582 20.404H4.48772L0 34.9984Z" fill="#231815" style="fill:#231815;fill:color(display-p3 0.1373 0.0941 0.0824);fill-opacity:1;"/>
<path d="M131.641 17.9247H131.573H131.717C131.724 17.7534 131.735 18.0816 131.735 17.9247C131.752 15.8877 130.768 13.6081 128.78 12.6128C126.792 11.621 123.97 11.1822 120.313 11.1822H108.64L106.474 17.9247H131.638H131.641Z" fill="#231815" style="fill:#231815;fill:color(display-p3 0.1373 0.0941 0.0824);fill-opacity:1;"/>
<path d="M140.355 17.9247H157.432L160.004 11.1822H135.269L132.959 17.9247C132.902 18.1601 132.838 17.6678 132.759 17.9247H140.359H140.355Z" fill="#231815" style="fill:#231815;fill:color(display-p3 0.1373 0.0941 0.0824);fill-opacity:1;"/>
<path d="M135.173 34.9984H142.941L148.188 20.404H140.42L135.173 34.9984Z" fill="#231815" style="fill:#231815;fill:color(display-p3 0.1373 0.0941 0.0824);fill-opacity:1;"/>
<path d="M35.2531 22.7728L22.0264 34.9984H29.254L38.3799 27.1536L42.8318 34.9984H51.227L43.9385 23.101L47.6884 20.404H33.5161L35.2531 22.7728Z" fill="#231815" style="fill:#231815;fill:color(display-p3 0.1373 0.0941 0.0824);fill-opacity:1;"/>
<path d="M48.9312 17.9247C65.2202 -1.07185 95.1193 1.0686 95.1193 1.0686C60.2562 -5.16725 41.1914 17.9247 41.1914 17.9247H48.9312Z" fill="#009A5A" style="fill:#009A5A;fill:color(display-p3 0.0000 0.6039 0.3529);fill-opacity:1;"/>
<path d="M81.3839 17.9247C81.3946 16.6582 81.126 15.456 80.5852 14.6177C80.0408 13.7793 79.2457 13.0944 78.2034 12.57C77.1433 12.0456 75.8862 11.671 74.4285 11.4534C72.9708 11.2322 71.2623 11.1787 69.2996 11.1787H58.5119L56.3486 17.9211H81.3517C81.3696 17.7142 81.3839 18.1316 81.3839 17.9211V17.9247Z" fill="#231815" style="fill:#231815;fill:color(display-p3 0.1373 0.0941 0.0824);fill-opacity:1;"/>
<path d="M51.3962 34.9984H59.1646L61.4676 27.3141H64.4152C69.741 27.3141 73.8957 26.4366 76.8755 24.6849C79.0531 23.4042 80.4428 22.2734 81.0373 20.404H55.8839L51.3926 34.9984H51.3962Z" fill="#231815" style="fill:#231815;fill:color(display-p3 0.1373 0.0941 0.0824);fill-opacity:1;"/>
<path d="M105.947 11.1822H84.6003L82.4406 17.9247H103.894L105.947 11.1822Z" fill="#231815" style="fill:#231815;fill:color(display-p3 0.1373 0.0941 0.0824);fill-opacity:1;"/>
<path d="M77.4873 34.9984H98.6258L100.309 29.5688H85.7822L86.692 26.8004H101.122L103.045 20.404H81.975L77.4873 34.9984Z" fill="#231815" style="fill:#231815;fill:color(display-p3 0.1373 0.0941 0.0824);fill-opacity:1;"/>
<path d="M101.523 34.9984H110.742L113.278 27.7387L118.701 34.9984H128.743L121.942 26.326C124.453 25.6624 128.038 24.6778 129.506 23.3721C130.355 22.6158 130.96 21.749 131.326 20.4005H106.015L101.523 34.9948V34.9984Z" fill="#231815" style="fill:#231815;fill:color(display-p3 0.1373 0.0941 0.0824);fill-opacity:1;"/>
</svg>
