<svg width="120" height="26" viewBox="0 0 120 26" fill="none" xmlns="http://www.w3.org/2000/svg">
<path d="M27.3475 8.30719H21.6476H21.0513H21.422L24.417 13.3161H30.5279L27.3475 8.30719Z" fill="#231815" style="fill:#231815;fill:color(display-p3 0.1373 0.0941 0.0824);fill-opacity:1;"/>
<path d="M21.3439 8.30719H5.33458L3.71216 13.3161H19.8047L21.3439 8.30719Z" fill="#231815" style="fill:#231815;fill:color(display-p3 0.1373 0.0941 0.0824);fill-opacity:1;"/>
<path d="M0 26H15.8508L17.116 21.9664H6.22106L6.90333 19.9098H17.723L19.1682 15.158H3.36571L0 26Z" fill="#231815" style="fill:#231815;fill:color(display-p3 0.1373 0.0941 0.0824);fill-opacity:1;"/>
<path d="M98.7289 13.3161H98.6778H98.7853C98.7907 13.1889 98.7987 13.4327 98.7987 13.3161C98.8122 11.8028 98.0735 10.1093 96.5827 9.36993C95.0919 8.63317 92.9752 8.30719 90.2327 8.30719H81.4786L79.8535 13.3161H98.7262H98.7289Z" fill="#231815" style="fill:#231815;fill:color(display-p3 0.1373 0.0941 0.0824);fill-opacity:1;"/>
<path d="M105.264 13.3161H118.072L120 8.30719H101.45L99.7173 13.3161C99.6743 13.491 99.626 13.1253 99.5669 13.3161H105.267H105.264Z" fill="#231815" style="fill:#231815;fill:color(display-p3 0.1373 0.0941 0.0824);fill-opacity:1;"/>
<path d="M101.377 26H107.203L111.138 15.158H105.312L101.377 26Z" fill="#231815" style="fill:#231815;fill:color(display-p3 0.1373 0.0941 0.0824);fill-opacity:1;"/>
<path d="M26.4394 16.9177L16.5195 26H21.9401L28.7844 20.1722L32.1232 26H38.4195L32.9532 17.1615L35.7656 15.158H25.1366L26.4394 16.9177Z" fill="#231815" style="fill:#231815;fill:color(display-p3 0.1373 0.0941 0.0824);fill-opacity:1;"/>
<path d="M36.6973 13.3161C48.9138 -0.796269 71.3375 0.793857 71.3375 0.793857C45.1908 -3.83871 30.8926 13.3161 30.8926 13.3161H36.6973Z" fill="#009A5A" style="fill:#009A5A;fill:color(display-p3 0.0000 0.6039 0.3529);fill-opacity:1;"/>
<path d="M61.0362 13.3161C61.0443 12.3753 60.8428 11.4822 60.4372 10.8594C60.0289 10.2366 59.4326 9.72771 58.651 9.33813C57.8559 8.94855 56.913 8.67028 55.8198 8.50862C54.7265 8.3443 53.4453 8.30455 51.9733 8.30455H43.8827L42.2603 13.3134H61.0121C61.0255 13.1597 61.0362 13.4698 61.0362 13.3134V13.3161Z" fill="#231815" style="fill:#231815;fill:color(display-p3 0.1373 0.0941 0.0824);fill-opacity:1;"/>
<path d="M38.5461 26H44.3723L46.0995 20.2914H48.3102C52.3045 20.2914 55.4204 19.6395 57.6552 18.3382C59.2884 17.3868 60.3306 16.5467 60.7765 15.158H41.9119L38.5435 26H38.5461Z" fill="#231815" style="fill:#231815;fill:color(display-p3 0.1373 0.0941 0.0824);fill-opacity:1;"/>
<path d="M79.4579 8.30719H63.4486L61.8289 13.3161H77.9187L79.4579 8.30719Z" fill="#231815" style="fill:#231815;fill:color(display-p3 0.1373 0.0941 0.0824);fill-opacity:1;"/>
<path d="M58.1143 26H73.9677L75.2302 21.9664H64.3353L65.0176 19.9098H75.84L77.2824 15.158H61.48L58.1143 26Z" fill="#231815" style="fill:#231815;fill:color(display-p3 0.1373 0.0941 0.0824);fill-opacity:1;"/>
<path d="M76.1406 26H83.0547L84.9565 20.6068L89.0233 26H96.5551L91.4542 19.5573C93.3372 19.0644 96.026 18.3329 97.1273 17.363C97.7639 16.8011 98.2179 16.1571 98.4918 15.1553H79.509L76.1406 25.9973V26Z" fill="#231815" style="fill:#231815;fill:color(display-p3 0.1373 0.0941 0.0824);fill-opacity:1;"/>
</svg>
