<svg preserveAspectRatio="none" width="100%" height="100%" overflow="visible" style="display: block;" viewBox="0 0 20 20" fill="none" xmlns="http://www.w3.org/2000/svg">
<g id="bus">
<path id="Vector" d="M15 9.58333H5V5.41667H15M13.75 14.5833C13.4185 14.5833 13.1005 14.4516 12.8661 14.2172C12.6317 13.9828 12.5 13.6649 12.5 13.3333C12.5 13.0018 12.6317 12.6839 12.8661 12.4494C13.1005 12.215 13.4185 12.0833 13.75 12.0833C14.0815 12.0833 14.3995 12.215 14.6339 12.4494C14.8683 12.6839 15 13.0018 15 13.3333C15 13.6649 14.8683 13.9828 14.6339 14.2172C14.3995 14.4516 14.0815 14.5833 13.75 14.5833ZM6.25 14.5833C5.91848 14.5833 5.60054 14.4516 5.36612 14.2172C5.1317 13.9828 5 13.6649 5 13.3333C5 13.0018 5.1317 12.6839 5.36612 12.4494C5.60054 12.215 5.91848 12.0833 6.25 12.0833C6.58152 12.0833 6.89946 12.215 7.13388 12.4494C7.3683 12.6839 7.5 13.0018 7.5 13.3333C7.5 13.6649 7.3683 13.9828 7.13388 14.2172C6.89946 14.4516 6.58152 14.5833 6.25 14.5833ZM3.33333 13.75C3.33333 14.4833 3.65833 15.1417 4.16667 15.6V17.0833C4.16667 17.3043 4.25446 17.5163 4.41074 17.6726C4.56702 17.8289 4.77899 17.9167 5 17.9167H5.83333C6.05435 17.9167 6.26631 17.8289 6.42259 17.6726C6.57887 17.5163 6.66667 17.3043 6.66667 17.0833V16.25H13.3333V17.0833C13.3333 17.3043 13.4211 17.5163 13.5774 17.6726C13.7337 17.8289 13.9457 17.9167 14.1667 17.9167H15C15.221 17.9167 15.433 17.8289 15.5893 17.6726C15.7455 17.5163 15.8333 17.3043 15.8333 17.0833V15.6C16.3417 15.1417 16.6667 14.4833 16.6667 13.75V5.41667C16.6667 2.5 13.6833 2.08333 10 2.08333C6.31667 2.08333 3.33333 2.5 3.33333 5.41667V13.75Z" fill="var(--fill-0, black)" style="fill:black;fill-opacity:1;"/>
</g>
</svg>
