<svg preserveAspectRatio="none" width="100%" height="100%" overflow="visible" style="display: block;" viewBox="0 0 20 20" fill="none" xmlns="http://www.w3.org/2000/svg">
<g id="icon">
<path id="Vector" d="M15.25 9.55263H10.875V5.07895H15.25M13.9375 14.9211C13.5894 14.9211 13.2556 14.7797 13.0094 14.528C12.7633 14.2763 12.625 13.9349 12.625 13.5789C12.625 13.223 12.7633 12.8816 13.0094 12.6299C13.2556 12.3782 13.5894 12.2368 13.9375 12.2368C14.2856 12.2368 14.6194 12.3782 14.8656 12.6299C15.1117 12.8816 15.25 13.223 15.25 13.5789C15.25 13.9349 15.1117 14.2763 14.8656 14.528C14.6194 14.7797 14.2856 14.9211 13.9375 14.9211ZM9.125 9.55263H4.75V5.07895H9.125M6.0625 14.9211C5.7144 14.9211 5.38056 14.7797 5.13442 14.528C4.88828 14.2763 4.75 13.9349 4.75 13.5789C4.75 13.223 4.88828 12.8816 5.13442 12.6299C5.38056 12.3782 5.7144 12.2368 6.0625 12.2368C6.4106 12.2368 6.74444 12.3782 6.99058 12.6299C7.23672 12.8816 7.375 13.223 7.375 13.5789C7.375 13.9349 7.23672 14.2763 6.99058 14.528C6.74444 14.7797 6.4106 14.9211 6.0625 14.9211ZM10 1.5C6.1325 1.5 3 1.94737 3 5.07895V13.5789C3 14.4095 3.32266 15.206 3.89699 15.7933C4.47132 16.3806 5.25027 16.7105 6.0625 16.7105L4.75 18.0526V18.5H15.25V18.0526L13.9375 16.7105C14.7497 16.7105 15.5287 16.3806 16.103 15.7933C16.6773 15.206 17 14.4095 17 13.5789V5.07895C17 1.94737 13.8675 1.5 10 1.5Z" fill="var(--fill-0, #222222)" style="fill:#222222;fill:color(display-p3 0.1333 0.1333 0.1333);fill-opacity:1;"/>
</g>
</svg>
