<svg width="16" height="16" viewBox="0 0 16 16" fill="none" xmlns="http://www.w3.org/2000/svg">
<g clip-path="url(#clip0_319_6398)">
<path d="M8.00063 16C6.28559 16 4.89018 14.5113 4.89018 12.6818C4.89018 11.9194 5.40879 10.9096 6.05675 9.94448C5.0929 10.5912 4.08178 11.1111 3.3194 11.1111C1.48994 11.1111 0.00125122 9.71564 0.00125122 8.0006C0.00125122 6.28556 1.48994 4.89014 3.3194 4.89014C4.08178 4.89014 5.09165 5.40876 6.05675 6.05672C5.41004 5.09286 4.89018 4.08175 4.89018 3.31937C4.89018 1.48991 6.28559 0.0012207 8.00063 0.0012207C9.71567 0.0012207 11.1111 1.48991 11.1111 3.31937C11.1111 4.08175 10.5925 5.09162 9.94451 6.05672C10.9084 5.41 11.9195 4.89014 12.6819 4.89014C14.5113 4.89014 16 6.28556 16 8.0006C16 9.71564 14.5113 11.1111 12.6819 11.1111C11.9195 11.1111 10.9096 10.5924 9.94451 9.94448C10.5912 10.9083 11.1111 11.9194 11.1111 12.6818C11.1111 14.5113 9.71567 16 8.00063 16ZM7.36386 8.36997C7.43227 8.36997 7.50067 8.39609 7.5529 8.44833C7.64991 8.54533 7.65737 8.69955 7.57156 8.80651C6.20724 10.488 5.42496 11.9008 5.42496 12.6831C5.42496 14.2178 6.58034 15.4664 8.00063 15.4664C9.42092 15.4664 10.5763 14.2178 10.5763 12.6831C10.5763 11.9008 9.79402 10.488 8.4297 8.80651C8.34389 8.69955 8.35135 8.54533 8.44836 8.44833C8.54536 8.35132 8.69958 8.34386 8.80654 8.42967C10.488 9.79399 11.9008 10.5763 12.6831 10.5763C14.2178 10.5763 15.4665 9.42089 15.4665 8.0006C15.4665 6.58031 14.2178 5.42493 12.6831 5.42493C11.9008 5.42493 10.488 6.20721 8.80654 7.57153C8.69958 7.65734 8.54536 7.64988 8.44836 7.55287C8.35135 7.45587 8.34389 7.30165 8.4297 7.19469C9.79402 5.51323 10.5763 4.1004 10.5763 3.31813C10.5763 1.78342 9.42092 0.534761 8.00063 0.534761C6.58034 0.534761 5.42496 1.78342 5.42496 3.31813C5.42496 4.1004 6.20724 5.51323 7.57156 7.19469C7.65737 7.30165 7.64991 7.45587 7.5529 7.55287C7.4559 7.64988 7.30168 7.65734 7.19472 7.57153C5.51326 6.20721 4.10044 5.42493 3.31816 5.42493C1.78345 5.42493 0.534792 6.58031 0.534792 8.0006C0.534792 9.42089 1.78345 10.5763 3.31816 10.5763C4.10044 10.5763 5.51326 9.79399 7.19472 8.42967C7.24447 8.38987 7.30417 8.36997 7.36262 8.36997H7.36386Z" fill="#FF5C34" style="fill:#FF5C34;fill:color(display-p3 1.0000 0.3608 0.2039);fill-opacity:1;"/>
<path d="M7.36386 8.36997C7.43227 8.36997 7.50067 8.39609 7.5529 8.44833C7.64991 8.54533 7.65737 8.69955 7.57156 8.80651C6.20724 10.488 5.42496 11.9008 5.42496 12.6831C5.42496 14.2178 6.58034 15.4664 8.00063 15.4664C9.42092 15.4664 10.5763 14.2178 10.5763 12.6831C10.5763 11.9008 9.79402 10.488 8.4297 8.80651C8.34389 8.69955 8.35135 8.54533 8.44836 8.44833C8.54536 8.35132 8.69958 8.34386 8.80654 8.42967C10.488 9.79399 11.9008 10.5763 12.6831 10.5763C14.2178 10.5763 15.4665 9.42089 15.4665 8.0006C15.4665 6.58031 14.2178 5.42493 12.6831 5.42493C11.9008 5.42493 10.488 6.20721 8.80654 7.57153C8.69958 7.65734 8.54536 7.64988 8.44836 7.55287C8.35135 7.45587 8.34389 7.30165 8.4297 7.19469C9.79402 5.51323 10.5763 4.1004 10.5763 3.31813C10.5763 1.78342 9.42092 0.534761 8.00063 0.534761C6.58034 0.534761 5.42496 1.78342 5.42496 3.31813C5.42496 4.1004 6.20724 5.51323 7.57156 7.19469C7.65737 7.30165 7.64991 7.45587 7.5529 7.55287C7.4559 7.64988 7.30168 7.65734 7.19472 7.57153C5.51326 6.20721 4.10044 5.42493 3.31816 5.42493C1.78345 5.42493 0.534792 6.58031 0.534792 8.0006C0.534792 9.42089 1.78345 10.5763 3.31816 10.5763C4.10044 10.5763 5.51326 9.79399 7.19472 8.42967C7.24447 8.38987 7.30417 8.36997 7.36262 8.36997H7.36386Z" fill="#FF5C34" style="fill:#FF5C34;fill:color(display-p3 1.0000 0.3608 0.2039);fill-opacity:1;"/>
</g>
<defs>
<clipPath id="clip0_319_6398">
<rect width="16" height="16" fill="white" style="fill:white;fill-opacity:1;"/>
</clipPath>
</defs>
</svg>
